<mxfile host="app.diagrams.net" modified="2021-01-04T15:16:57.570Z" agent="5.0 (Macintosh; Intel Mac OS X 11_0_1) AppleWebKit/537.36 (KHTML, like Gecko) Chrome/87.0.4280.88 Safari/537.36" etag="xyEorD24LaxGFp19O6Al" version="14.0.1" type="github">
  <diagram id="i40p0dXTV-tEWQXWrm0X" name="Page-1">
    <mxGraphModel dx="786" dy="514" grid="1" gridSize="10" guides="1" tooltips="1" connect="1" arrows="1" fold="1" page="1" pageScale="1" pageWidth="827" pageHeight="1169" math="0" shadow="0">
      <root>
        <mxCell id="0" />
        <mxCell id="1" parent="0" />
        <mxCell id="mbSkb2f_OlLMSArY7Py_-17" style="edgeStyle=orthogonalEdgeStyle;rounded=0;orthogonalLoop=1;jettySize=auto;html=1;exitX=1;exitY=0.3333333333333333;exitDx=0;exitDy=0;exitPerimeter=0;entryX=-0.013;entryY=0.467;entryDx=0;entryDy=0;entryPerimeter=0;" edge="1" parent="1" source="mbSkb2f_OlLMSArY7Py_-18" target="mbSkb2f_OlLMSArY7Py_-33">
          <mxGeometry relative="1" as="geometry">
            <mxPoint x="310" y="190" as="targetPoint" />
          </mxGeometry>
        </mxCell>
        <mxCell id="mbSkb2f_OlLMSArY7Py_-18" value="&lt;font style=&quot;font-size: 14px&quot;&gt;用户&lt;/font&gt;" style="shape=umlActor;verticalLabelPosition=bottom;verticalAlign=top;html=1;outlineConnect=0;fillColor=#dae8fc;strokeColor=#6c8ebf;" vertex="1" parent="1">
          <mxGeometry x="179" y="170" width="30" height="60" as="geometry" />
        </mxCell>
        <mxCell id="mbSkb2f_OlLMSArY7Py_-35" style="edgeStyle=orthogonalEdgeStyle;rounded=0;orthogonalLoop=1;jettySize=auto;html=1;exitX=0;exitY=0.5;exitDx=0;exitDy=0;entryX=1;entryY=0.453;entryDx=0;entryDy=0;entryPerimeter=0;" edge="1" parent="1" source="mbSkb2f_OlLMSArY7Py_-21">
          <mxGeometry relative="1" as="geometry">
            <mxPoint x="520" y="189.01" as="sourcePoint" />
            <mxPoint x="395" y="188.485" as="targetPoint" />
            <Array as="points">
              <mxPoint x="550" y="189" />
              <mxPoint x="458" y="189" />
            </Array>
          </mxGeometry>
        </mxCell>
        <mxCell id="mbSkb2f_OlLMSArY7Py_-21" value="" style="shape=image;html=1;verticalAlign=top;verticalLabelPosition=bottom;labelBackgroundColor=#ffffff;imageAspect=0;aspect=fixed;image=https://cdn4.iconfinder.com/data/icons/top-search-7/128/_android_logo_robot_interface_media_social_-128.png" vertex="1" parent="1">
          <mxGeometry x="550" y="168.5" width="48" height="48" as="geometry" />
        </mxCell>
        <mxCell id="mbSkb2f_OlLMSArY7Py_-26" value="滴滴号" style="text;html=1;align=center;verticalAlign=middle;resizable=0;points=[];autosize=1;fontSize=14;" vertex="1" parent="1">
          <mxGeometry x="329" y="230" width="60" height="20" as="geometry" />
        </mxCell>
        <mxCell id="mbSkb2f_OlLMSArY7Py_-27" value="&lt;font style=&quot;font-size: 12px;&quot;&gt;1.提问&lt;/font&gt;" style="text;html=1;align=center;verticalAlign=middle;resizable=0;points=[];autosize=1;fontSize=12;" vertex="1" parent="1">
          <mxGeometry x="225" y="170" width="50" height="20" as="geometry" />
        </mxCell>
        <mxCell id="mbSkb2f_OlLMSArY7Py_-28" value="&amp;nbsp; &amp;nbsp; 2.引导用户提问，&lt;br&gt;尝试解决问题" style="text;html=1;align=center;verticalAlign=middle;resizable=0;points=[];autosize=1;fontSize=12;" vertex="1" parent="1">
          <mxGeometry x="420" y="155" width="120" height="30" as="geometry" />
        </mxCell>
        <mxCell id="mbSkb2f_OlLMSArY7Py_-33" value="" style="dashed=0;aspect=fixed;verticalLabelPosition=bottom;verticalAlign=top;align=center;shape=mxgraph.gmdl.chat;strokeColor=none;fillColor=#737373;shadow=0;" vertex="1" parent="1">
          <mxGeometry x="320" y="155" width="75" height="75" as="geometry" />
        </mxCell>
        <mxCell id="mbSkb2f_OlLMSArY7Py_-36" value="" style="shape=image;html=1;verticalAlign=top;verticalLabelPosition=bottom;labelBackgroundColor=#ffffff;imageAspect=0;aspect=fixed;image=https://cdn4.iconfinder.com/data/icons/help-and-support-5/64/reporting-support-information-business-webpage-128.png" vertex="1" parent="1">
          <mxGeometry x="330" y="319" width="58" height="58" as="geometry" />
        </mxCell>
        <mxCell id="mbSkb2f_OlLMSArY7Py_-38" style="edgeStyle=orthogonalEdgeStyle;rounded=0;orthogonalLoop=1;jettySize=auto;html=1;entryX=1;entryY=0.453;entryDx=0;entryDy=0;entryPerimeter=0;" edge="1" parent="1">
          <mxGeometry relative="1" as="geometry">
            <mxPoint x="550.5" y="208" as="sourcePoint" />
            <mxPoint x="395" y="207.995" as="targetPoint" />
            <Array as="points">
              <mxPoint x="480" y="208" />
              <mxPoint x="480" y="208" />
            </Array>
          </mxGeometry>
        </mxCell>
        <mxCell id="mbSkb2f_OlLMSArY7Py_-39" value="3. 若无法回答，&lt;br&gt;则引导用户提交工单" style="text;html=1;align=center;verticalAlign=middle;resizable=0;points=[];autosize=1;" vertex="1" parent="1">
          <mxGeometry x="420" y="210" width="120" height="30" as="geometry" />
        </mxCell>
        <mxCell id="mbSkb2f_OlLMSArY7Py_-40" value="" style="endArrow=classic;html=1;entryX=0;entryY=0.5;entryDx=0;entryDy=0;" edge="1" parent="1" target="mbSkb2f_OlLMSArY7Py_-36">
          <mxGeometry width="50" height="50" relative="1" as="geometry">
            <mxPoint x="220" y="210" as="sourcePoint" />
            <mxPoint x="390" y="190" as="targetPoint" />
            <Array as="points">
              <mxPoint x="220" y="349" />
            </Array>
          </mxGeometry>
        </mxCell>
        <mxCell id="mbSkb2f_OlLMSArY7Py_-41" value="4.提交工单" style="text;html=1;align=center;verticalAlign=middle;resizable=0;points=[];autosize=1;" vertex="1" parent="1">
          <mxGeometry x="225" y="215" width="70" height="20" as="geometry" />
        </mxCell>
        <mxCell id="mbSkb2f_OlLMSArY7Py_-54" style="edgeStyle=orthogonalEdgeStyle;rounded=0;orthogonalLoop=1;jettySize=auto;html=1;entryX=0.5;entryY=0;entryDx=0;entryDy=0;fontSize=14;" edge="1" parent="1" source="mbSkb2f_OlLMSArY7Py_-42" target="mbSkb2f_OlLMSArY7Py_-53">
          <mxGeometry relative="1" as="geometry" />
        </mxCell>
        <mxCell id="mbSkb2f_OlLMSArY7Py_-42" value="工单系统" style="text;html=1;align=center;verticalAlign=middle;resizable=0;points=[];autosize=1;fontSize=14;" vertex="1" parent="1">
          <mxGeometry x="322.5" y="380" width="70" height="20" as="geometry" />
        </mxCell>
        <mxCell id="mbSkb2f_OlLMSArY7Py_-45" style="edgeStyle=orthogonalEdgeStyle;rounded=0;orthogonalLoop=1;jettySize=auto;html=1;entryX=1;entryY=0.5;entryDx=0;entryDy=0;fontSize=14;" edge="1" parent="1" source="mbSkb2f_OlLMSArY7Py_-43" target="mbSkb2f_OlLMSArY7Py_-36">
          <mxGeometry relative="1" as="geometry">
            <Array as="points">
              <mxPoint x="520" y="348" />
              <mxPoint x="520" y="348" />
            </Array>
          </mxGeometry>
        </mxCell>
        <mxCell id="mbSkb2f_OlLMSArY7Py_-43" value="&lt;font style=&quot;font-size: 14px&quot;&gt;值班同学&lt;/font&gt;" style="shape=umlActor;verticalLabelPosition=bottom;verticalAlign=top;html=1;outlineConnect=0;fillColor=#fff2cc;strokeColor=#d6b656;" vertex="1" parent="1">
          <mxGeometry x="559" y="320" width="30" height="60" as="geometry" />
        </mxCell>
        <mxCell id="mbSkb2f_OlLMSArY7Py_-46" value="&lt;font style=&quot;font-size: 12px&quot;&gt;4.认领工单，解决问题&lt;/font&gt;" style="text;html=1;align=center;verticalAlign=middle;resizable=0;points=[];autosize=1;fontSize=14;" vertex="1" parent="1">
          <mxGeometry x="410" y="330" width="130" height="20" as="geometry" />
        </mxCell>
        <mxCell id="mbSkb2f_OlLMSArY7Py_-47" value="&lt;font style=&quot;font-size: 14px&quot;&gt;技术团队&lt;/font&gt;" style="shape=umlActor;verticalLabelPosition=bottom;verticalAlign=top;html=1;outlineConnect=0;fillColor=#fff2cc;strokeColor=#d6b656;" vertex="1" parent="1">
          <mxGeometry x="760" y="320" width="30" height="60" as="geometry" />
        </mxCell>
        <mxCell id="mbSkb2f_OlLMSArY7Py_-48" style="edgeStyle=orthogonalEdgeStyle;rounded=0;orthogonalLoop=1;jettySize=auto;html=1;fontSize=14;" edge="1" parent="1" target="mbSkb2f_OlLMSArY7Py_-47">
          <mxGeometry relative="1" as="geometry">
            <mxPoint x="589" y="350" as="sourcePoint" />
            <mxPoint x="720" y="349" as="targetPoint" />
            <Array as="points">
              <mxPoint x="589" y="349" />
            </Array>
          </mxGeometry>
        </mxCell>
        <mxCell id="mbSkb2f_OlLMSArY7Py_-52" value="&lt;font style=&quot;font-size: 12px&quot;&gt;5.无法解决，通过工单系统&lt;br&gt;移交给技术团队。&lt;/font&gt;" style="text;html=1;align=center;verticalAlign=middle;resizable=0;points=[];autosize=1;fontSize=14;" vertex="1" parent="1">
          <mxGeometry x="589" y="310" width="160" height="40" as="geometry" />
        </mxCell>
        <mxCell id="mbSkb2f_OlLMSArY7Py_-53" value="" style="shape=image;html=1;verticalAlign=top;verticalLabelPosition=bottom;labelBackgroundColor=#ffffff;imageAspect=0;aspect=fixed;image=https://cdn0.iconfinder.com/data/icons/business-collection-2027/60/presentation-14-128.png;fontSize=14;" vertex="1" parent="1">
          <mxGeometry x="328.5" y="490" width="58" height="58" as="geometry" />
        </mxCell>
        <mxCell id="mbSkb2f_OlLMSArY7Py_-55" value="6.对工单和工单处理结果进行量化分析" style="text;html=1;align=center;verticalAlign=middle;resizable=0;points=[];autosize=1;fontSize=12;" vertex="1" parent="1">
          <mxGeometry x="350" y="440" width="220" height="20" as="geometry" />
        </mxCell>
        <mxCell id="mbSkb2f_OlLMSArY7Py_-56" value="客服机器人" style="text;html=1;align=center;verticalAlign=middle;resizable=0;points=[];autosize=1;fontSize=14;" vertex="1" parent="1">
          <mxGeometry x="589" y="185" width="90" height="20" as="geometry" />
        </mxCell>
      </root>
    </mxGraphModel>
  </diagram>
</mxfile>
